<svg width="33" height="37" viewBox="0 0 33 37" fill="none" xmlns="http://www.w3.org/2000/svg">
<path id="Vector" d="M16.5218 36.3478C18.68 36.3478 20.4457 34.6702 20.4457 32.6198H12.5979C12.5979 34.6702 14.3637 36.3478 16.5218 36.3478ZM28.2936 25.1639V15.8439C28.2936 10.1215 25.0956 5.33101 19.4648 4.0635V2.79599C19.4648 1.24887 18.1502 0 16.5218 0C14.8934 0 13.5789 1.24887 13.5789 2.79599V4.0635C7.96769 5.33101 4.75008 10.1028 4.75008 15.8439V25.1639L0.826172 28.8919V30.7559H32.2175V28.8919L28.2936 25.1639ZM24.3696 27.0279H8.674V15.8439C8.674 11.2212 11.6366 7.45596 16.5218 7.45596C21.4071 7.45596 24.3696 11.2212 24.3696 15.8439V27.0279Z" fill="#5604DD"/>
</svg>
