<svg width="38" height="27" viewBox="0 0 38 27" fill="none" xmlns="http://www.w3.org/2000/svg">
<g id="Group">
<g id="Group_2">
<path id="Vector" d="M8.45793 26.1368C6.36783 26.1368 4.33532 25.36 2.74717 23.9277C1.06851 22.4146 0.0975134 20.3512 0.00699705 18.1259C-0.0835193 15.9007 0.706441 13.7645 2.24522 12.1299C3.71817 10.5601 5.7013 9.62146 7.85723 9.45963C7.65974 4.98488 10.869 0.938995 15.4771 0.13791C20.4884 -0.72791 25.2857 2.57353 26.1662 7.50142C26.1991 7.70371 26.2238 7.90601 26.2403 8.1083C26.7505 8.03548 27.2936 7.99502 27.886 7.99502C32.9714 7.99502 37.1105 12.0652 37.1105 17.0659C37.1105 22.0666 32.9632 26.1368 27.8778 26.1368H27.3923C26.8327 26.1368 26.0346 26.1368 25.7465 26.1368H8.79531C8.68833 26.1368 8.57313 26.1368 8.45793 26.1368ZM8.49084 12.2675C8.41679 12.2675 8.3345 12.2675 8.26044 12.2756C5.16643 12.3969 2.7554 14.9701 2.87883 18.0126C2.93643 19.4853 3.58651 20.8447 4.68916 21.8481C5.80004 22.8515 7.2483 23.3694 8.73771 23.3046H25.7548C26.051 23.3046 26.8327 23.3046 27.3841 23.3046H27.8696C31.3668 23.3046 34.2139 20.5049 34.2139 17.0659C34.2139 13.6269 31.3668 10.8271 27.8696 10.8271C26.8245 10.8271 26.0346 10.9728 25.3187 11.2884C24.8496 11.4988 24.2983 11.4502 23.8786 11.1508C23.459 10.8514 23.2368 10.3578 23.2861 9.84803C23.352 9.24115 23.4096 8.54526 23.3108 7.99502C22.7019 4.60457 19.4022 2.33078 15.9626 2.92957C12.6628 3.50409 10.3999 6.50613 10.7538 9.73475C14.2098 10.6815 16.8101 13.7321 16.9665 17.4462C17.0158 18.6033 16.8266 19.7362 16.3987 20.8043C16.1107 21.5325 15.2713 21.8967 14.5308 21.6135C13.7902 21.3303 13.4199 20.513 13.7079 19.7847C13.9877 19.0807 14.1111 18.3282 14.0782 17.5676C13.9794 14.5898 11.4861 12.2675 8.49084 12.2675Z" fill="#6F6F6F"/>
</g>
<g id="Group_3">
<g id="Group_4">
<path id="Vector_2" d="M1.15955 17.3331C1.15955 13.2306 4.54156 9.90485 8.71354 9.90485C12.8855 9.90485 16.2675 13.2306 16.2675 17.3331C16.2675 21.4356 12.9678 24.7613 8.7876 24.7613C4.6074 24.7613 1.15955 21.4356 1.15955 17.3331Z" fill="#6F6F6F"/>
</g>
<g id="Group_5">
<path id="Vector_3" d="M8.79601 25.4895C4.17968 25.4895 0.427368 21.832 0.427368 17.3411C0.427368 12.8502 4.14677 9.19269 8.71373 9.19269C13.2807 9.19269 17.0001 12.8502 17.0001 17.3411C17.0001 21.832 13.3218 25.4895 8.79601 25.4895ZM8.71373 10.6249C4.95318 10.6249 1.89209 13.6351 1.89209 17.333C1.89209 21.031 4.9861 24.0411 8.79601 24.0411C12.5154 24.0411 15.5354 21.031 15.5354 17.333C15.5354 13.6351 12.4743 10.6249 8.71373 10.6249Z" fill="#6F6F6F"/>
</g>
</g>
<g id="Group_6">
<g id="Group_7">
<path id="Vector_4" d="M24.3476 24.1381L24.397 24.041C23.9609 24.0572 23.1462 23.9439 22.9076 23.9034C21.879 23.685 20.9821 23.3937 20.1921 23.0376C20.044 22.9567 19.9123 22.8839 19.83 22.8272C18.7109 22.0342 18.0362 21.0956 17.6165 20.2298C17.5095 19.987 17.4437 19.8333 17.419 19.7362C17.1557 18.7328 17.0487 17.8508 17.0158 17.5595C17.0076 17.3815 16.9993 17.163 16.9993 17.163L16.8924 17.4058C16.8924 17.1225 16.9088 16.9526 16.9088 16.9526C16.9088 16.9526 16.6949 17.1468 16.3822 17.4381H16.2588L16.267 17.5433C16.0037 17.7861 15.691 18.0774 15.3618 18.3849C14.4978 16.5076 14.5143 14.9054 14.5143 14.9054L11.5684 17.9965L13.0989 24.2271L29.2355 24.7531V24.1947C27.384 24.3566 25.763 24.3161 24.3476 24.1381Z" fill="#6F6F6F"/>
</g>
</g>
</g>
</svg>
