<svg width="211" height="152" viewBox="0 0 211 152" fill="none" xmlns="http://www.w3.org/2000/svg">
<g id="Group">
<g id="Group_2">
<path id="Vector" d="M47.9448 151.065C36.0968 151.065 24.5753 146.575 15.5727 138.297C6.05696 129.551 0.552767 117.625 0.0396636 104.764C-0.473439 91.9023 4.00455 79.5554 12.7273 70.1082C21.0769 61.035 32.3185 55.6099 44.5397 54.6745C43.4202 28.8115 61.612 5.42718 87.7336 0.797086C116.141 -4.20715 143.335 14.8744 148.326 43.3565C148.513 44.5257 148.653 45.6949 148.746 46.8642C151.638 46.4432 154.717 46.2094 158.075 46.2094C186.902 46.2094 210.365 69.734 210.365 98.637C210.365 127.54 186.856 151.065 158.029 151.065H155.277C152.105 151.065 147.58 151.065 145.948 151.065H49.8573C49.2509 151.065 48.5979 151.065 47.9448 151.065ZM48.1314 70.9032C47.7116 70.9032 47.2451 70.9032 46.8253 70.95C29.2865 71.6515 15.6193 86.5239 16.319 104.109C16.6455 112.621 20.3306 120.478 26.5811 126.277C32.8783 132.077 41.0879 135.07 49.5308 134.696H145.994C147.673 134.696 152.105 134.696 155.23 134.696H157.982C177.807 134.696 193.946 118.514 193.946 98.637C193.946 78.7603 177.807 62.5784 157.982 62.5784C152.058 62.5784 147.58 63.4202 143.522 65.2442C140.863 66.4602 137.738 66.1796 135.359 64.4492C132.98 62.7187 131.721 59.8658 132 56.9194C132.374 53.4118 132.7 49.3897 132.14 46.2094C128.689 26.6134 109.984 13.4714 90.4857 16.9323C71.7808 20.2528 58.9532 37.604 60.959 56.2646C80.5502 61.7366 95.2903 79.3683 96.1765 100.835C96.4564 107.523 95.3836 114.071 92.958 120.244C91.3254 124.453 86.5675 126.558 82.3694 124.921C78.1713 123.284 76.0722 118.56 77.7048 114.351C79.2908 110.282 79.9905 105.933 79.8039 101.537C79.2441 84.3258 65.1105 70.9032 48.1314 70.9032Z" fill="#5F0CE7"/>
</g>
<g id="Group_3">
<g id="Group_4">
<path id="Vector_2" d="M6.56958 100.18C6.56958 76.4688 25.741 57.2469 49.3904 57.2469C73.0398 57.2469 92.2112 76.4688 92.2112 100.18C92.2112 123.892 73.5062 143.114 49.8102 143.114C26.1141 143.114 6.56958 123.892 6.56958 100.18Z" fill="#5F0CE7"/>
</g>
<g id="Group_5">
<path id="Vector_3" d="M49.8569 147.323C23.6886 147.323 2.41818 126.184 2.41818 100.227C2.41818 74.2706 23.5021 53.1312 49.3904 53.1312C75.2788 53.1312 96.3627 74.2706 96.3627 100.227C96.3627 126.184 75.512 147.323 49.8569 147.323ZM49.3904 61.4093C28.0733 61.4093 10.7211 78.8072 10.7211 100.18C10.7211 121.554 28.2599 138.952 49.8569 138.952C70.9408 138.952 88.0597 121.554 88.0597 100.18C88.0597 78.8072 70.7075 61.4093 49.3904 61.4093Z" fill="#5F0CE7"/>
</g>
</g>
<g id="Group_6">
<g id="Group_7">
<path id="Vector_4" d="M138.017 139.513L138.297 138.952C135.825 139.045 131.207 138.39 129.854 138.157C124.024 136.894 118.939 135.21 114.461 133.152C113.622 132.685 112.875 132.264 112.409 131.936C106.065 127.353 102.24 121.928 99.8611 116.924C99.2547 115.521 98.8815 114.632 98.7416 114.071C97.2489 108.271 96.6425 103.174 96.456 101.49C96.4093 100.461 96.3627 99.1983 96.3627 99.1983L95.7563 100.601C95.7563 98.9644 95.8496 97.9823 95.8496 97.9823C95.8496 97.9823 94.6368 99.1047 92.8642 100.788H92.1645L92.2112 101.396C90.7185 102.799 88.946 104.483 87.0802 106.26C82.1824 95.41 82.2756 86.1498 82.2756 86.1498L65.5765 104.015L74.2526 140.027L165.725 143.067V139.84C155.23 140.776 146.04 140.542 138.017 139.513Z" fill="#5F0CE7"/>
</g>
</g>
</g>
</svg>
