<svg width="48" height="57" viewBox="0 0 48 57" fill="none" xmlns="http://www.w3.org/2000/svg">
<g id="Group 413">
<g id="Group">
<g id="Group_2">
<path id="Vector" d="M22.8138 3.19112L23.0971 2.23412C21.1817 1.5349 19.0608 1.13034 16.8324 1.13034L16.8316 1.13034C8.27004 1.14253 1.17554 6.92579 1.17554 14.2614C1.17554 20.3529 6.10167 25.3745 12.6607 26.8905L12.9456 25.934C7.76079 24.0309 4.20982 19.7498 4.20982 14.8577C4.20982 8.25001 10.6774 2.73863 18.8666 2.73863C20.2307 2.73863 21.5493 2.90085 22.8138 3.19112Z" fill="#1D1D1D" stroke="#1D1D1D"/>
<path id="Vector_2" d="M22.7218 3.7972L22.7218 3.79723L22.727 3.79844C23.3609 3.94504 23.7966 3.4286 23.8853 2.94891C23.9325 2.69361 23.8986 2.43073 23.7953 2.20623C23.6938 1.9856 23.5071 1.76836 23.2266 1.6712C21.1947 0.924143 19.0369 0.545105 16.8323 0.545105C8.01401 0.545105 0.697998 6.62141 0.697998 14.2606C0.697998 20.4651 5.62859 25.8592 12.5506 27.4686C12.655 27.5007 12.7457 27.4993 12.7692 27.499C12.771 27.499 12.7723 27.4989 12.7733 27.4989C13.3049 27.4989 13.6357 27.0605 13.7354 26.6691L13.7395 26.653L13.7425 26.6366C13.7897 26.3812 13.7559 26.1184 13.6525 25.8939C13.551 25.6732 13.3643 25.4559 13.0837 25.3588C7.93379 23.468 4.69689 19.321 4.69689 14.8569C4.69689 8.58997 10.9557 3.3342 18.8666 3.3342C20.1357 3.3342 21.4332 3.48461 22.7218 3.7972ZM2.65306 14.2606C2.65306 12.1096 3.38656 10.0799 4.67155 8.34067C3.4378 10.2741 2.73228 12.4916 2.73228 14.8569C2.73228 15.1282 2.74164 15.3981 2.76013 15.6662C2.68931 15.2036 2.65306 14.7344 2.65306 14.2606Z" fill="#1D1D1D" stroke="#1D1D1D"/>
</g>
<g id="Group_3">
<path id="Vector_3" d="M1.13684 14.3563C1.13684 22.0022 8.56591 28.0599 17.5004 28.0599C26.4343 28.0599 33.864 22.0147 33.864 14.3683C33.864 6.72258 26.4447 0.664734 17.5004 0.664734C8.55678 0.664734 1.13684 6.71013 1.13684 14.3563ZM3.56943 14.3683C3.56943 8.44985 9.70508 3.45383 17.5004 3.45383C25.2957 3.45383 31.4314 8.44985 31.4314 14.3683C31.4314 20.2867 25.2957 25.2827 17.5004 25.2827C9.70508 25.2827 3.56943 20.2867 3.56943 14.3683Z" fill="#1D1D1D" stroke="#1D1D1D"/>
</g>
</g>
<g id="Group_4">
<g id="Group_5">
<path id="Vector_4" d="M32.9871 54.3895L32.6823 55.3396C33.9036 55.8231 35.2567 56.1031 36.6791 56.1032L36.6799 56.1031C42.1471 56.0947 46.6633 52.0897 46.6633 47.0317C46.6633 42.8313 43.5286 39.3568 39.3406 38.3071L39.0341 39.2566C42.2094 40.5206 44.3904 43.3665 44.3904 46.627C44.3904 51.0311 40.4202 54.6904 35.4062 54.6904C34.571 54.6904 33.763 54.5827 32.9871 54.3895Z" fill="#1D1D1D" stroke="#1D1D1D"/>
<path id="Vector_5" d="M33.0468 53.9787L33.0468 53.9786L33.0413 53.9772C32.7768 53.9109 32.5326 53.9997 32.3653 54.1498C32.2051 54.2936 32.1135 54.4898 32.0801 54.6858C32.0465 54.8831 32.07 55.0875 32.1456 55.2656C32.2183 55.4368 32.3619 55.6309 32.6021 55.7219C33.8973 56.238 35.2732 56.5001 36.6787 56.5001C42.3095 56.5001 46.9617 52.2935 46.9617 47.032C46.9617 42.7606 43.831 39.0321 39.415 37.9161C39.3162 37.8851 39.2326 37.8873 39.22 37.8877C39.2193 37.8877 39.2188 37.8877 39.2185 37.8877C38.7427 37.8877 38.499 38.3001 38.433 38.5809L38.4294 38.596L38.4268 38.6113C38.3932 38.8086 38.4167 39.013 38.4923 39.1911C38.565 39.3624 38.7086 39.5565 38.9489 39.6474C42.1004 40.903 44.0851 43.6568 44.0851 46.6273C44.0851 50.7976 40.2485 54.286 35.4057 54.286C34.6298 54.286 33.8359 54.1862 33.0468 53.9787Z" fill="#1D1D1D" stroke="#1D1D1D"/>
</g>
<g id="Group_6">
<path id="Vector_6" d="M46.687 46.9669C46.687 41.6983 41.9613 37.5069 36.2606 37.5069C30.5604 37.5069 25.8341 41.6896 25.8341 46.9588C25.8341 52.2272 30.5536 56.4188 36.2606 56.4188C41.9669 56.4188 46.687 52.2359 46.687 46.9669ZM44.7906 46.9588C44.7906 50.8869 41.0374 54.2047 36.2606 54.2047C31.4837 54.2047 27.7305 50.8869 27.7305 46.9588C27.7305 43.0307 31.4837 39.7129 36.2606 39.7129C41.0374 39.7129 44.7906 43.0307 44.7906 46.9588Z" fill="#1D1D1D" stroke="#1D1D1D"/>
</g>
</g>
</g>
</svg>
