<svg width="248" height="178" viewBox="0 0 248 178" fill="none" xmlns="http://www.w3.org/2000/svg">
<path id="Vector" d="M23.275 69.1083C23.275 69.1083 19.8864 38.5487 50.4752 39.6902C50.4752 39.6902 63.7865 5.02149 113.932 3.08869C164.078 1.15588 180.55 31.4111 181.264 35.718C181.264 35.718 199.56 27.9259 218.432 37.8943C236.622 47.4975 241.104 62.7011 240.952 70.5998C240.74 81.1312 235.497 88.9994 235.497 88.9994C249.614 104.431 243.824 123.151 243.824 123.151C233.233 165.322 180.261 152.964 180.261 152.964C139.658 200.691 96.7611 156.191 96.9282 155.095C40.9931 186.355 28.2592 129.984 29.2469 128.173C29.2469 128.173 3.33833 125.89 3.00402 99.2722C2.66972 72.6543 23.275 69.1083 23.275 69.1083Z" stroke="#1F1F1F" stroke-width="6" stroke-miterlimit="10" stroke-linejoin="round"/>
</svg>
