<svg width="48" height="34" viewBox="0 0 48 34" fill="none" xmlns="http://www.w3.org/2000/svg">
<g id="Group">
<path id="Vector" d="M31.492 31.4001L31.5559 31.2738C30.9918 31.2949 29.9381 31.1475 29.6295 31.0949C28.299 30.8107 27.1389 30.4317 26.1171 29.9686C25.9256 29.8633 25.7553 29.7686 25.6488 29.6949C24.2013 28.6633 23.3286 27.4423 22.7858 26.316C22.6474 26.0002 22.5623 25.8002 22.5303 25.6739C22.1897 24.3687 22.0514 23.2213 22.0088 22.8424C21.9982 22.6108 21.9875 22.3266 21.9875 22.3266L21.8492 22.6424C21.8492 22.2739 21.8704 22.0529 21.8704 22.0529C21.8704 22.0529 21.5937 22.3055 21.1893 22.6845H21.0296L21.0403 22.8213C20.6997 23.1371 20.2952 23.516 19.8695 23.916C18.7519 21.474 18.7732 19.3898 18.7732 19.3898L14.9629 23.4108L16.9426 31.5159L37.8142 32.2001V31.4738C35.4194 31.6843 33.3227 31.6317 31.492 31.4001Z" fill="#5604DD"/>
<path id="Vector_2" d="M1.5 22.5477C1.5 17.2109 5.87442 12.8846 11.2706 12.8846C16.6668 12.8846 21.0412 17.2109 21.0412 22.5477C21.0412 27.8844 16.7732 32.2107 11.3664 32.2107C5.95957 32.2107 1.5 27.8844 1.5 22.5477Z" fill="#5604DD"/>
<path id="Vector_3" d="M11.377 33.1579C5.40611 33.1579 0.552734 28.4 0.552734 22.558C0.552734 16.716 5.36354 11.9581 11.2706 11.9581C17.1777 11.9581 21.9885 16.716 21.9885 22.558C21.9885 28.4 17.2309 33.1579 11.377 33.1579ZM11.2706 13.8213C6.40659 13.8213 2.44725 17.737 2.44725 22.5475C2.44725 27.3579 6.44916 31.2737 11.377 31.2737C16.1878 31.2737 20.094 27.3579 20.094 22.5475C20.094 17.737 16.1346 13.8213 11.2706 13.8213Z" fill="#5604DD"/>
<path id="Vector_4" d="M10.9398 34C8.23637 34 5.60746 32.9895 3.55329 31.1264C1.38204 29.158 0.126127 26.4738 0.00905023 23.5791C-0.108027 20.6844 0.913737 17.9055 2.90405 15.7792C4.80921 13.7371 7.37426 12.5161 10.1628 12.3056C9.90738 6.48458 14.0583 1.22149 20.0186 0.1794C26.5004 -0.946901 32.7055 3.34778 33.8443 9.75822C33.8869 10.0214 33.9188 10.2845 33.9401 10.5477C34.6 10.4529 35.3025 10.4003 36.0688 10.4003C42.6464 10.4003 48 15.695 48 22.2002C48 28.7053 42.6357 34 36.0581 34H35.4302C34.7064 34 33.674 34 33.3015 34H11.3762C11.2378 34 11.0888 34 10.9398 34ZM10.9824 15.9581C10.8866 15.9581 10.7801 15.9581 10.6843 15.9687C6.68244 16.1266 3.56394 19.4739 3.72359 23.4317C3.79809 25.3475 4.63892 27.1159 6.06513 28.4211C7.50198 29.7264 9.37521 30.4 11.3017 30.3158H33.3121C33.6953 30.3158 34.7064 30.3158 35.4195 30.3158H36.0475C40.5709 30.3158 44.2535 26.6738 44.2535 22.2002C44.2535 17.7265 40.5709 14.0845 36.0475 14.0845C34.6958 14.0845 33.674 14.2739 32.7481 14.6845C32.1414 14.9581 31.4283 14.895 30.8855 14.5055C30.3427 14.1161 30.0553 13.474 30.1191 12.8108C30.2043 12.0213 30.2788 11.1161 30.1511 10.4003C29.3635 5.98985 25.0955 3.03199 20.6465 3.81093C16.3786 4.55829 13.4516 8.4635 13.9093 12.6634C18.3795 13.895 21.7428 17.8634 21.945 22.6949C22.0089 24.2001 21.7641 25.6738 21.2106 27.0632C20.8381 28.0106 19.7525 28.4843 18.7946 28.1159C17.8367 27.7475 17.3577 26.6843 17.7303 25.737C18.0921 24.8212 18.2518 23.8422 18.2092 22.8528C18.0815 18.9791 14.8565 15.9581 10.9824 15.9581Z" fill="#5604DD"/>
</g>
</svg>
