<svg width="48" height="32" viewBox="0 0 48 32" fill="none" xmlns="http://www.w3.org/2000/svg">
<path id="Vector" d="M32.7273 13.7143C36.3491 13.7143 39.2509 10.6514 39.2509 6.85714C39.2509 3.06286 36.3491 0 32.7273 0C29.1055 0 26.1818 3.06286 26.1818 6.85714C26.1818 10.6514 29.1055 13.7143 32.7273 13.7143ZM15.2727 13.7143C18.8945 13.7143 21.7964 10.6514 21.7964 6.85714C21.7964 3.06286 18.8945 0 15.2727 0C11.6509 0 8.72727 3.06286 8.72727 6.85714C8.72727 10.6514 11.6509 13.7143 15.2727 13.7143ZM15.2727 18.2857C10.1891 18.2857 0 20.96 0 26.2857V32H30.5455V26.2857C30.5455 20.96 20.3564 18.2857 15.2727 18.2857ZM32.7273 18.2857C32.0945 18.2857 31.3745 18.3314 30.6109 18.4C33.1418 20.32 34.9091 22.9029 34.9091 26.2857V32H48V26.2857C48 20.96 37.8109 18.2857 32.7273 18.2857Z" fill="#5604DD"/>
</svg>
